<mxfile host="app.diagrams.net" agent="Mozilla/5.0 (Windows NT 10.0; Win64; x64) AppleWebKit/537.36 (KHTML, like Gecko) Chrome/131.0.0.0 Safari/537.36 Edg/131.0.0.0" version="25.0.3">
  <diagram name="第 1 页" id="GhBMQzF368VTo1EPFOqB">
    <mxGraphModel dx="1334" dy="1966" grid="1" gridSize="10" guides="1" tooltips="1" connect="1" arrows="1" fold="1" page="1" pageScale="1" pageWidth="827" pageHeight="1169" math="0" shadow="0">
      <root>
        <mxCell id="0" />
        <mxCell id="1" parent="0" />
        <mxCell id="QpKYs9JofSfuDZrGURqp-1" value="&lt;font style=&quot;font-size: 13px;&quot;&gt;&lt;b&gt;公共接入&lt;/b&gt;&lt;/font&gt;" style="rounded=1;whiteSpace=wrap;html=1;fillColor=#fff2cc;strokeColor=#d6b656;" vertex="1" parent="1">
          <mxGeometry x="260" y="80" width="270" height="40" as="geometry" />
        </mxCell>
        <mxCell id="QpKYs9JofSfuDZrGURqp-2" value="接口服务" style="rounded=1;whiteSpace=wrap;html=1;fillColor=#dae8fc;strokeColor=#6c8ebf;" vertex="1" parent="1">
          <mxGeometry x="280" y="160" width="90" height="40" as="geometry" />
        </mxCell>
        <mxCell id="QpKYs9JofSfuDZrGURqp-3" value="接口服务" style="rounded=1;whiteSpace=wrap;html=1;fillColor=#dae8fc;strokeColor=#6c8ebf;" vertex="1" parent="1">
          <mxGeometry x="414" y="160" width="90" height="40" as="geometry" />
        </mxCell>
        <mxCell id="QpKYs9JofSfuDZrGURqp-5" value="" style="endArrow=classic;html=1;rounded=0;exitX=0.219;exitY=1.025;exitDx=0;exitDy=0;exitPerimeter=0;" edge="1" parent="1" source="QpKYs9JofSfuDZrGURqp-1">
          <mxGeometry width="50" height="50" relative="1" as="geometry">
            <mxPoint x="390" y="430" as="sourcePoint" />
            <mxPoint x="319" y="160" as="targetPoint" />
          </mxGeometry>
        </mxCell>
        <mxCell id="QpKYs9JofSfuDZrGURqp-8" value="" style="endArrow=classic;html=1;rounded=0;exitX=0.219;exitY=1.025;exitDx=0;exitDy=0;exitPerimeter=0;" edge="1" parent="1">
          <mxGeometry width="50" height="50" relative="1" as="geometry">
            <mxPoint x="458" y="121" as="sourcePoint" />
            <mxPoint x="458" y="160" as="targetPoint" />
          </mxGeometry>
        </mxCell>
        <mxCell id="QpKYs9JofSfuDZrGURqp-10" value="&lt;b&gt;广州&lt;/b&gt;" style="rounded=0;whiteSpace=wrap;html=1;fillColor=#1ba1e2;fontColor=#ffffff;strokeColor=#006EAF;" vertex="1" parent="1">
          <mxGeometry x="110" y="160" width="50" height="30" as="geometry" />
        </mxCell>
        <mxCell id="QpKYs9JofSfuDZrGURqp-11" value="Redis集群" style="rounded=1;whiteSpace=wrap;html=1;fillColor=#d5e8d4;strokeColor=#82b366;" vertex="1" parent="1">
          <mxGeometry x="120" y="220" width="90" height="40" as="geometry" />
        </mxCell>
        <mxCell id="QpKYs9JofSfuDZrGURqp-12" value="定时器" style="rounded=1;whiteSpace=wrap;html=1;fillColor=#dae8fc;strokeColor=#6c8ebf;" vertex="1" parent="1">
          <mxGeometry x="285" y="220" width="80" height="40" as="geometry" />
        </mxCell>
        <mxCell id="QpKYs9JofSfuDZrGURqp-13" value="DB(主)" style="rounded=1;whiteSpace=wrap;html=1;fillColor=#f8cecc;strokeColor=#b85450;" vertex="1" parent="1">
          <mxGeometry x="120" y="310" width="90" height="40" as="geometry" />
        </mxCell>
        <mxCell id="QpKYs9JofSfuDZrGURqp-15" value="定时读取" style="text;html=1;align=center;verticalAlign=middle;whiteSpace=wrap;rounded=0;" vertex="1" parent="1">
          <mxGeometry x="240" y="327" width="60" height="30" as="geometry" />
        </mxCell>
        <mxCell id="QpKYs9JofSfuDZrGURqp-16" value="" style="endArrow=classic;html=1;rounded=0;exitX=0;exitY=0.5;exitDx=0;exitDy=0;entryX=1;entryY=0.5;entryDx=0;entryDy=0;" edge="1" parent="1" source="QpKYs9JofSfuDZrGURqp-12" target="QpKYs9JofSfuDZrGURqp-11">
          <mxGeometry width="50" height="50" relative="1" as="geometry">
            <mxPoint x="390" y="430" as="sourcePoint" />
            <mxPoint x="440" y="380" as="targetPoint" />
          </mxGeometry>
        </mxCell>
        <mxCell id="QpKYs9JofSfuDZrGURqp-17" value="异步更新" style="text;html=1;align=center;verticalAlign=middle;whiteSpace=wrap;rounded=0;" vertex="1" parent="1">
          <mxGeometry x="220" y="240" width="60" height="30" as="geometry" />
        </mxCell>
        <mxCell id="QpKYs9JofSfuDZrGURqp-18" value="" style="endArrow=none;dashed=1;html=1;dashPattern=1 3;strokeWidth=2;rounded=0;exitX=0;exitY=0;exitDx=0;exitDy=0;fillColor=#0050ef;strokeColor=#001DBC;" edge="1" parent="1" source="QpKYs9JofSfuDZrGURqp-10">
          <mxGeometry width="50" height="50" relative="1" as="geometry">
            <mxPoint x="390" y="430" as="sourcePoint" />
            <mxPoint x="110" y="380" as="targetPoint" />
          </mxGeometry>
        </mxCell>
        <mxCell id="QpKYs9JofSfuDZrGURqp-19" value="" style="endArrow=none;dashed=1;html=1;dashPattern=1 3;strokeWidth=2;rounded=0;exitX=0;exitY=0;exitDx=0;exitDy=0;" edge="1" parent="1" source="QpKYs9JofSfuDZrGURqp-10">
          <mxGeometry width="50" height="50" relative="1" as="geometry">
            <mxPoint x="390" y="430" as="sourcePoint" />
            <mxPoint x="390" y="160" as="targetPoint" />
          </mxGeometry>
        </mxCell>
        <mxCell id="QpKYs9JofSfuDZrGURqp-20" value="" style="endArrow=none;dashed=1;html=1;dashPattern=1 3;strokeWidth=2;rounded=0;fillColor=#0050ef;strokeColor=#001DBC;" edge="1" parent="1">
          <mxGeometry width="50" height="50" relative="1" as="geometry">
            <mxPoint x="382" y="160" as="sourcePoint" />
            <mxPoint x="382" y="380" as="targetPoint" />
          </mxGeometry>
        </mxCell>
        <mxCell id="QpKYs9JofSfuDZrGURqp-21" value="" style="endArrow=none;dashed=1;html=1;dashPattern=1 3;strokeWidth=2;rounded=0;fillColor=#0050ef;strokeColor=#001DBC;" edge="1" parent="1">
          <mxGeometry width="50" height="50" relative="1" as="geometry">
            <mxPoint x="110" y="380" as="sourcePoint" />
            <mxPoint x="390" y="380" as="targetPoint" />
          </mxGeometry>
        </mxCell>
        <mxCell id="QpKYs9JofSfuDZrGURqp-22" value="" style="endArrow=classic;html=1;rounded=0;exitX=0;exitY=0.5;exitDx=0;exitDy=0;entryX=0.5;entryY=0;entryDx=0;entryDy=0;" edge="1" parent="1" source="QpKYs9JofSfuDZrGURqp-2" target="QpKYs9JofSfuDZrGURqp-11">
          <mxGeometry width="50" height="50" relative="1" as="geometry">
            <mxPoint x="390" y="430" as="sourcePoint" />
            <mxPoint x="440" y="380" as="targetPoint" />
          </mxGeometry>
        </mxCell>
        <mxCell id="QpKYs9JofSfuDZrGURqp-23" value="定时器" style="rounded=1;whiteSpace=wrap;html=1;fillColor=#dae8fc;strokeColor=#6c8ebf;" vertex="1" parent="1">
          <mxGeometry x="419" y="220" width="80" height="40" as="geometry" />
        </mxCell>
        <mxCell id="QpKYs9JofSfuDZrGURqp-24" value="Redis集群" style="rounded=1;whiteSpace=wrap;html=1;fillColor=#d5e8d4;strokeColor=#82b366;" vertex="1" parent="1">
          <mxGeometry x="570" y="220" width="90" height="40" as="geometry" />
        </mxCell>
        <mxCell id="QpKYs9JofSfuDZrGURqp-25" value="" style="endArrow=classic;html=1;rounded=0;exitX=1;exitY=0.5;exitDx=0;exitDy=0;entryX=0;entryY=0.5;entryDx=0;entryDy=0;" edge="1" parent="1" source="QpKYs9JofSfuDZrGURqp-23" target="QpKYs9JofSfuDZrGURqp-24">
          <mxGeometry width="50" height="50" relative="1" as="geometry">
            <mxPoint x="390" y="430" as="sourcePoint" />
            <mxPoint x="440" y="380" as="targetPoint" />
          </mxGeometry>
        </mxCell>
        <mxCell id="QpKYs9JofSfuDZrGURqp-26" value="异步更新" style="text;html=1;align=center;verticalAlign=middle;whiteSpace=wrap;rounded=0;" vertex="1" parent="1">
          <mxGeometry x="504" y="240" width="60" height="30" as="geometry" />
        </mxCell>
        <mxCell id="QpKYs9JofSfuDZrGURqp-27" value="DB(从)" style="rounded=1;whiteSpace=wrap;html=1;fillColor=#f8cecc;strokeColor=#b85450;" vertex="1" parent="1">
          <mxGeometry x="570" y="310" width="90" height="40" as="geometry" />
        </mxCell>
        <mxCell id="QpKYs9JofSfuDZrGURqp-29" value="定时读取" style="text;html=1;align=center;verticalAlign=middle;whiteSpace=wrap;rounded=0;" vertex="1" parent="1">
          <mxGeometry x="490" y="327" width="60" height="30" as="geometry" />
        </mxCell>
        <mxCell id="QpKYs9JofSfuDZrGURqp-30" value="" style="endArrow=classic;html=1;rounded=0;exitX=1;exitY=0.5;exitDx=0;exitDy=0;entryX=0.411;entryY=0.025;entryDx=0;entryDy=0;entryPerimeter=0;" edge="1" parent="1" source="QpKYs9JofSfuDZrGURqp-3" target="QpKYs9JofSfuDZrGURqp-24">
          <mxGeometry width="50" height="50" relative="1" as="geometry">
            <mxPoint x="390" y="430" as="sourcePoint" />
            <mxPoint x="440" y="380" as="targetPoint" />
          </mxGeometry>
        </mxCell>
        <mxCell id="QpKYs9JofSfuDZrGURqp-31" value="" style="endArrow=none;dashed=1;html=1;dashPattern=1 3;strokeWidth=2;rounded=0;fillColor=#0050ef;strokeColor=#001DBC;" edge="1" parent="1">
          <mxGeometry width="50" height="50" relative="1" as="geometry">
            <mxPoint x="403" y="161" as="sourcePoint" />
            <mxPoint x="403" y="381" as="targetPoint" />
          </mxGeometry>
        </mxCell>
        <mxCell id="QpKYs9JofSfuDZrGURqp-32" value="" style="endArrow=none;dashed=1;html=1;dashPattern=1 3;strokeWidth=2;rounded=0;fillColor=#0050ef;strokeColor=#001DBC;" edge="1" parent="1">
          <mxGeometry width="50" height="50" relative="1" as="geometry">
            <mxPoint x="410" y="380" as="sourcePoint" />
            <mxPoint x="690" y="380" as="targetPoint" />
          </mxGeometry>
        </mxCell>
        <mxCell id="QpKYs9JofSfuDZrGURqp-33" value="" style="endArrow=none;dashed=1;html=1;dashPattern=1 3;strokeWidth=2;rounded=0;fillColor=#0050ef;strokeColor=#001DBC;" edge="1" parent="1">
          <mxGeometry width="50" height="50" relative="1" as="geometry">
            <mxPoint x="683" y="161" as="sourcePoint" />
            <mxPoint x="683" y="381" as="targetPoint" />
          </mxGeometry>
        </mxCell>
        <mxCell id="QpKYs9JofSfuDZrGURqp-34" value="" style="endArrow=none;dashed=1;html=1;dashPattern=1 3;strokeWidth=2;rounded=0;exitX=0;exitY=0;exitDx=0;exitDy=0;" edge="1" parent="1">
          <mxGeometry width="50" height="50" relative="1" as="geometry">
            <mxPoint x="402" y="159" as="sourcePoint" />
            <mxPoint x="682" y="159" as="targetPoint" />
          </mxGeometry>
        </mxCell>
        <mxCell id="QpKYs9JofSfuDZrGURqp-35" value="&lt;b&gt;北京&lt;/b&gt;" style="rounded=0;whiteSpace=wrap;html=1;fillColor=#1ba1e2;fontColor=#ffffff;strokeColor=#006EAF;" vertex="1" parent="1">
          <mxGeometry x="630" y="160" width="50" height="30" as="geometry" />
        </mxCell>
        <mxCell id="QpKYs9JofSfuDZrGURqp-36" value="用户" style="shape=umlActor;verticalLabelPosition=bottom;verticalAlign=top;html=1;outlineConnect=0;" vertex="1" parent="1">
          <mxGeometry x="384.5" y="-10" width="21" height="40" as="geometry" />
        </mxCell>
        <mxCell id="QpKYs9JofSfuDZrGURqp-37" value="" style="endArrow=classic;html=1;rounded=0;" edge="1" parent="1" source="QpKYs9JofSfuDZrGURqp-36" target="QpKYs9JofSfuDZrGURqp-1">
          <mxGeometry width="50" height="50" relative="1" as="geometry">
            <mxPoint x="390" y="230" as="sourcePoint" />
            <mxPoint x="440" y="180" as="targetPoint" />
          </mxGeometry>
        </mxCell>
        <mxCell id="QpKYs9JofSfuDZrGURqp-38" value="" style="endArrow=classic;html=1;rounded=0;exitX=0.5;exitY=1;exitDx=0;exitDy=0;entryX=1;entryY=0.5;entryDx=0;entryDy=0;" edge="1" parent="1" source="QpKYs9JofSfuDZrGURqp-12" target="QpKYs9JofSfuDZrGURqp-13">
          <mxGeometry width="50" height="50" relative="1" as="geometry">
            <mxPoint x="390" y="330" as="sourcePoint" />
            <mxPoint x="440" y="280" as="targetPoint" />
            <Array as="points">
              <mxPoint x="325" y="330" />
            </Array>
          </mxGeometry>
        </mxCell>
        <mxCell id="QpKYs9JofSfuDZrGURqp-39" value="" style="endArrow=classic;html=1;rounded=0;exitX=0.5;exitY=1;exitDx=0;exitDy=0;" edge="1" parent="1" source="QpKYs9JofSfuDZrGURqp-23">
          <mxGeometry width="50" height="50" relative="1" as="geometry">
            <mxPoint x="390" y="330" as="sourcePoint" />
            <mxPoint x="560" y="320" as="targetPoint" />
            <Array as="points">
              <mxPoint x="460" y="320" />
            </Array>
          </mxGeometry>
        </mxCell>
        <mxCell id="QpKYs9JofSfuDZrGURqp-47" value="" style="edgeStyle=orthogonalEdgeStyle;rounded=0;orthogonalLoop=1;jettySize=auto;html=1;" edge="1" parent="1" source="QpKYs9JofSfuDZrGURqp-43" target="QpKYs9JofSfuDZrGURqp-46">
          <mxGeometry relative="1" as="geometry" />
        </mxCell>
        <mxCell id="QpKYs9JofSfuDZrGURqp-43" value="前端搜索词触发" style="rounded=1;whiteSpace=wrap;html=1;fillColor=#fff2cc;strokeColor=#d6b656;" vertex="1" parent="1">
          <mxGeometry x="330" y="430" width="120" height="60" as="geometry" />
        </mxCell>
        <mxCell id="QpKYs9JofSfuDZrGURqp-46" value="召回" style="rounded=1;whiteSpace=wrap;html=1;fillColor=#d5e8d4;strokeColor=#82b366;" vertex="1" parent="1">
          <mxGeometry x="330" y="525" width="120" height="105" as="geometry" />
        </mxCell>
        <mxCell id="QpKYs9JofSfuDZrGURqp-48" value="" style="group" vertex="1" connectable="0" parent="1">
          <mxGeometry x="80" y="600" width="120" height="150" as="geometry" />
        </mxCell>
        <mxCell id="QpKYs9JofSfuDZrGURqp-45" value="" style="edgeStyle=orthogonalEdgeStyle;rounded=0;orthogonalLoop=1;jettySize=auto;html=1;" edge="1" parent="QpKYs9JofSfuDZrGURqp-48" source="QpKYs9JofSfuDZrGURqp-40" target="QpKYs9JofSfuDZrGURqp-42">
          <mxGeometry relative="1" as="geometry" />
        </mxCell>
        <mxCell id="QpKYs9JofSfuDZrGURqp-40" value="人工数据" style="rounded=1;whiteSpace=wrap;html=1;fillColor=#dae8fc;strokeColor=#6c8ebf;" vertex="1" parent="QpKYs9JofSfuDZrGURqp-48">
          <mxGeometry x="7.5" width="105" height="60" as="geometry" />
        </mxCell>
        <mxCell id="QpKYs9JofSfuDZrGURqp-42" value="Redis集群" style="rounded=1;whiteSpace=wrap;html=1;fillColor=#dae8fc;strokeColor=#6c8ebf;" vertex="1" parent="QpKYs9JofSfuDZrGURqp-48">
          <mxGeometry y="90" width="120" height="60" as="geometry" />
        </mxCell>
        <mxCell id="QpKYs9JofSfuDZrGURqp-49" value="" style="endArrow=none;dashed=1;html=1;dashPattern=1 3;strokeWidth=2;rounded=0;" edge="1" parent="1">
          <mxGeometry width="50" height="50" relative="1" as="geometry">
            <mxPoint x="70" y="590" as="sourcePoint" />
            <mxPoint x="70" y="770" as="targetPoint" />
          </mxGeometry>
        </mxCell>
        <mxCell id="QpKYs9JofSfuDZrGURqp-50" value="" style="endArrow=none;dashed=1;html=1;dashPattern=1 3;strokeWidth=2;rounded=0;" edge="1" parent="1">
          <mxGeometry width="50" height="50" relative="1" as="geometry">
            <mxPoint x="70" y="770" as="sourcePoint" />
            <mxPoint x="210" y="770" as="targetPoint" />
          </mxGeometry>
        </mxCell>
        <mxCell id="QpKYs9JofSfuDZrGURqp-51" value="" style="endArrow=none;dashed=1;html=1;dashPattern=1 3;strokeWidth=2;rounded=0;" edge="1" parent="1">
          <mxGeometry width="50" height="50" relative="1" as="geometry">
            <mxPoint x="210" y="770" as="sourcePoint" />
            <mxPoint x="210" y="590" as="targetPoint" />
          </mxGeometry>
        </mxCell>
        <mxCell id="QpKYs9JofSfuDZrGURqp-52" value="" style="endArrow=none;dashed=1;html=1;dashPattern=1 3;strokeWidth=2;rounded=0;" edge="1" parent="1">
          <mxGeometry width="50" height="50" relative="1" as="geometry">
            <mxPoint x="70" y="590" as="sourcePoint" />
            <mxPoint x="210" y="590" as="targetPoint" />
          </mxGeometry>
        </mxCell>
        <mxCell id="QpKYs9JofSfuDZrGURqp-53" value="" style="endArrow=classic;html=1;rounded=0;" edge="1" parent="1">
          <mxGeometry width="50" height="50" relative="1" as="geometry">
            <mxPoint x="310" y="600" as="sourcePoint" />
            <mxPoint x="220" y="670" as="targetPoint" />
          </mxGeometry>
        </mxCell>
        <mxCell id="QpKYs9JofSfuDZrGURqp-54" value="推荐服务" style="rounded=1;whiteSpace=wrap;html=1;fillColor=#ffe6cc;strokeColor=#d79b00;" vertex="1" parent="1">
          <mxGeometry x="250" y="710" width="100" height="60" as="geometry" />
        </mxCell>
        <mxCell id="QpKYs9JofSfuDZrGURqp-55" value="" style="endArrow=classic;html=1;rounded=0;" edge="1" parent="1">
          <mxGeometry width="50" height="50" relative="1" as="geometry">
            <mxPoint x="340" y="640" as="sourcePoint" />
            <mxPoint x="300" y="700" as="targetPoint" />
          </mxGeometry>
        </mxCell>
        <mxCell id="QpKYs9JofSfuDZrGURqp-56" value="票务/商城服务" style="rounded=1;whiteSpace=wrap;html=1;fillColor=#e1d5e7;strokeColor=#9673a6;" vertex="1" parent="1">
          <mxGeometry x="434.5" y="710" width="95.5" height="60" as="geometry" />
        </mxCell>
        <mxCell id="QpKYs9JofSfuDZrGURqp-57" value="直播服务" style="rounded=1;whiteSpace=wrap;html=1;fillColor=#f5f5f5;strokeColor=#666666;fontColor=#333333;" vertex="1" parent="1">
          <mxGeometry x="590" y="710" width="95.5" height="60" as="geometry" />
        </mxCell>
        <mxCell id="QpKYs9JofSfuDZrGURqp-58" value="" style="endArrow=classic;html=1;rounded=0;" edge="1" parent="1">
          <mxGeometry width="50" height="50" relative="1" as="geometry">
            <mxPoint x="430" y="640" as="sourcePoint" />
            <mxPoint x="470" y="700" as="targetPoint" />
          </mxGeometry>
        </mxCell>
        <mxCell id="QpKYs9JofSfuDZrGURqp-59" value="" style="endArrow=classic;html=1;rounded=0;" edge="1" parent="1">
          <mxGeometry width="50" height="50" relative="1" as="geometry">
            <mxPoint x="460" y="600" as="sourcePoint" />
            <mxPoint x="640" y="700" as="targetPoint" />
          </mxGeometry>
        </mxCell>
        <mxCell id="QpKYs9JofSfuDZrGURqp-67" value="" style="edgeStyle=orthogonalEdgeStyle;rounded=0;orthogonalLoop=1;jettySize=auto;html=1;" edge="1" parent="1" source="QpKYs9JofSfuDZrGURqp-61" target="QpKYs9JofSfuDZrGURqp-66">
          <mxGeometry relative="1" as="geometry" />
        </mxCell>
        <mxCell id="QpKYs9JofSfuDZrGURqp-61" value="过滤" style="rounded=1;whiteSpace=wrap;html=1;fillColor=#b0e3e6;strokeColor=#0e8088;" vertex="1" parent="1">
          <mxGeometry x="330" y="830" width="120" height="60" as="geometry" />
        </mxCell>
        <mxCell id="QpKYs9JofSfuDZrGURqp-62" value="" style="endArrow=classic;html=1;rounded=0;" edge="1" parent="1">
          <mxGeometry width="50" height="50" relative="1" as="geometry">
            <mxPoint x="150" y="770" as="sourcePoint" />
            <mxPoint x="320" y="860" as="targetPoint" />
          </mxGeometry>
        </mxCell>
        <mxCell id="QpKYs9JofSfuDZrGURqp-63" value="" style="endArrow=classic;html=1;rounded=0;exitX=0.5;exitY=1;exitDx=0;exitDy=0;entryX=0.25;entryY=0;entryDx=0;entryDy=0;" edge="1" parent="1" source="QpKYs9JofSfuDZrGURqp-54" target="QpKYs9JofSfuDZrGURqp-61">
          <mxGeometry width="50" height="50" relative="1" as="geometry">
            <mxPoint x="300" y="780" as="sourcePoint" />
            <mxPoint x="370" y="820" as="targetPoint" />
          </mxGeometry>
        </mxCell>
        <mxCell id="QpKYs9JofSfuDZrGURqp-64" value="" style="endArrow=classic;html=1;rounded=0;exitX=0.403;exitY=1.083;exitDx=0;exitDy=0;exitPerimeter=0;entryX=0.65;entryY=-0.033;entryDx=0;entryDy=0;entryPerimeter=0;" edge="1" parent="1" source="QpKYs9JofSfuDZrGURqp-56" target="QpKYs9JofSfuDZrGURqp-61">
          <mxGeometry width="50" height="50" relative="1" as="geometry">
            <mxPoint x="390" y="730" as="sourcePoint" />
            <mxPoint x="440" y="680" as="targetPoint" />
          </mxGeometry>
        </mxCell>
        <mxCell id="QpKYs9JofSfuDZrGURqp-65" value="" style="endArrow=classic;html=1;rounded=0;exitX=0.25;exitY=1;exitDx=0;exitDy=0;" edge="1" parent="1" source="QpKYs9JofSfuDZrGURqp-57">
          <mxGeometry width="50" height="50" relative="1" as="geometry">
            <mxPoint x="390" y="730" as="sourcePoint" />
            <mxPoint x="460" y="860" as="targetPoint" />
          </mxGeometry>
        </mxCell>
        <mxCell id="QpKYs9JofSfuDZrGURqp-69" value="" style="edgeStyle=orthogonalEdgeStyle;rounded=0;orthogonalLoop=1;jettySize=auto;html=1;" edge="1" parent="1" source="QpKYs9JofSfuDZrGURqp-66" target="QpKYs9JofSfuDZrGURqp-68">
          <mxGeometry relative="1" as="geometry" />
        </mxCell>
        <mxCell id="QpKYs9JofSfuDZrGURqp-66" value="重排" style="rounded=1;whiteSpace=wrap;html=1;fillColor=#f8cecc;strokeColor=#b85450;" vertex="1" parent="1">
          <mxGeometry x="330" y="920" width="120" height="60" as="geometry" />
        </mxCell>
        <mxCell id="QpKYs9JofSfuDZrGURqp-68" value="前端展示" style="rounded=1;whiteSpace=wrap;html=1;fillColor=#dae8fc;strokeColor=#6c8ebf;" vertex="1" parent="1">
          <mxGeometry x="330" y="1010" width="120" height="60" as="geometry" />
        </mxCell>
      </root>
    </mxGraphModel>
  </diagram>
</mxfile>
